G04 #@! TF.GenerationSoftware,KiCad,Pcbnew,(5.1.2)-2*
G04 #@! TF.CreationDate,2019-08-09T21:51:20-03:00*
G04 #@! TF.ProjectId,primeiro,7072696d-6569-4726-9f2e-6b696361645f,rev?*
G04 #@! TF.SameCoordinates,Original*
G04 #@! TF.FileFunction,Legend,Top*
G04 #@! TF.FilePolarity,Positive*
%FSLAX46Y46*%
G04 Gerber Fmt 4.6, Leading zero omitted, Abs format (unit mm)*
G04 Created by KiCad (PCBNEW (5.1.2)-2) date 2019-08-09 21:51:20*
%MOMM*%
%LPD*%
G04 APERTURE LIST*
%ADD10C,0.050000*%
%ADD11C,0.120000*%
%ADD12C,0.150000*%
G04 APERTURE END LIST*
D10*
X134620000Y-101600000D02*
X134620000Y-85090000D01*
X158750000Y-101600000D02*
X134620000Y-101600000D01*
X158750000Y-85090000D02*
X158750000Y-101600000D01*
X134620000Y-85090000D02*
X158750000Y-85090000D01*
D11*
X145870000Y-96830000D02*
X144920000Y-96830000D01*
X140130000Y-96830000D02*
X141080000Y-96830000D01*
X144920000Y-95910000D02*
X141080000Y-95910000D01*
X144920000Y-97750000D02*
X144920000Y-95910000D01*
X141080000Y-97750000D02*
X144920000Y-97750000D01*
X141080000Y-95910000D02*
X141080000Y-97750000D01*
X145870000Y-93680000D02*
X144920000Y-93680000D01*
X140130000Y-93680000D02*
X141080000Y-93680000D01*
X144920000Y-92760000D02*
X141080000Y-92760000D01*
X144920000Y-94600000D02*
X144920000Y-92760000D01*
X141080000Y-94600000D02*
X144920000Y-94600000D01*
X141080000Y-92760000D02*
X141080000Y-94600000D01*
X145870000Y-90530000D02*
X144920000Y-90530000D01*
X140130000Y-90530000D02*
X141080000Y-90530000D01*
X144920000Y-89610000D02*
X141080000Y-89610000D01*
X144920000Y-91450000D02*
X144920000Y-89610000D01*
X141080000Y-91450000D02*
X144920000Y-91450000D01*
X141080000Y-89610000D02*
X141080000Y-91450000D01*
X153378478Y-94048478D02*
G75*
G03X151540000Y-89610000I-1838478J1838478D01*
G01*
X149701522Y-94048478D02*
G75*
G02X151540000Y-89610000I1838478J1838478D01*
G01*
X149740000Y-94060000D02*
X153340000Y-94060000D01*
X152730000Y-97575000D02*
X152730000Y-97640000D01*
X152730000Y-95400000D02*
X152730000Y-95465000D01*
X149490000Y-97575000D02*
X149490000Y-97640000D01*
X149490000Y-95400000D02*
X149490000Y-95465000D01*
X149490000Y-97640000D02*
X152730000Y-97640000D01*
X149490000Y-95400000D02*
X152730000Y-95400000D01*
D12*
X142833333Y-95362380D02*
X142500000Y-94886190D01*
X142261904Y-95362380D02*
X142261904Y-94362380D01*
X142642857Y-94362380D01*
X142738095Y-94410000D01*
X142785714Y-94457619D01*
X142833333Y-94552857D01*
X142833333Y-94695714D01*
X142785714Y-94790952D01*
X142738095Y-94838571D01*
X142642857Y-94886190D01*
X142261904Y-94886190D01*
X143166666Y-94362380D02*
X143785714Y-94362380D01*
X143452380Y-94743333D01*
X143595238Y-94743333D01*
X143690476Y-94790952D01*
X143738095Y-94838571D01*
X143785714Y-94933809D01*
X143785714Y-95171904D01*
X143738095Y-95267142D01*
X143690476Y-95314761D01*
X143595238Y-95362380D01*
X143309523Y-95362380D01*
X143214285Y-95314761D01*
X143166666Y-95267142D01*
X142833333Y-92212380D02*
X142500000Y-91736190D01*
X142261904Y-92212380D02*
X142261904Y-91212380D01*
X142642857Y-91212380D01*
X142738095Y-91260000D01*
X142785714Y-91307619D01*
X142833333Y-91402857D01*
X142833333Y-91545714D01*
X142785714Y-91640952D01*
X142738095Y-91688571D01*
X142642857Y-91736190D01*
X142261904Y-91736190D01*
X143214285Y-91307619D02*
X143261904Y-91260000D01*
X143357142Y-91212380D01*
X143595238Y-91212380D01*
X143690476Y-91260000D01*
X143738095Y-91307619D01*
X143785714Y-91402857D01*
X143785714Y-91498095D01*
X143738095Y-91640952D01*
X143166666Y-92212380D01*
X143785714Y-92212380D01*
X142833333Y-89062380D02*
X142500000Y-88586190D01*
X142261904Y-89062380D02*
X142261904Y-88062380D01*
X142642857Y-88062380D01*
X142738095Y-88110000D01*
X142785714Y-88157619D01*
X142833333Y-88252857D01*
X142833333Y-88395714D01*
X142785714Y-88490952D01*
X142738095Y-88538571D01*
X142642857Y-88586190D01*
X142261904Y-88586190D01*
X143785714Y-89062380D02*
X143214285Y-89062380D01*
X143500000Y-89062380D02*
X143500000Y-88062380D01*
X143404761Y-88205238D01*
X143309523Y-88300476D01*
X143214285Y-88348095D01*
X151444761Y-89197619D02*
X151349523Y-89150000D01*
X151254285Y-89054761D01*
X151111428Y-88911904D01*
X151016190Y-88864285D01*
X150920952Y-88864285D01*
X150968571Y-89102380D02*
X150873333Y-89054761D01*
X150778095Y-88959523D01*
X150730476Y-88769047D01*
X150730476Y-88435714D01*
X150778095Y-88245238D01*
X150873333Y-88150000D01*
X150968571Y-88102380D01*
X151159047Y-88102380D01*
X151254285Y-88150000D01*
X151349523Y-88245238D01*
X151397142Y-88435714D01*
X151397142Y-88769047D01*
X151349523Y-88959523D01*
X151254285Y-89054761D01*
X151159047Y-89102380D01*
X150968571Y-89102380D01*
X152349523Y-89102380D02*
X151778095Y-89102380D01*
X152063809Y-89102380D02*
X152063809Y-88102380D01*
X151968571Y-88245238D01*
X151873333Y-88340476D01*
X151778095Y-88388095D01*
X150943333Y-94627142D02*
X150895714Y-94674761D01*
X150752857Y-94722380D01*
X150657619Y-94722380D01*
X150514761Y-94674761D01*
X150419523Y-94579523D01*
X150371904Y-94484285D01*
X150324285Y-94293809D01*
X150324285Y-94150952D01*
X150371904Y-93960476D01*
X150419523Y-93865238D01*
X150514761Y-93770000D01*
X150657619Y-93722380D01*
X150752857Y-93722380D01*
X150895714Y-93770000D01*
X150943333Y-93817619D01*
X151895714Y-94722380D02*
X151324285Y-94722380D01*
X151610000Y-94722380D02*
X151610000Y-93722380D01*
X151514761Y-93865238D01*
X151419523Y-93960476D01*
X151324285Y-94008095D01*
M02*
