G04 #@! TF.GenerationSoftware,KiCad,Pcbnew,(5.1.2)-2*
G04 #@! TF.CreationDate,2019-08-09T21:51:20-03:00*
G04 #@! TF.ProjectId,primeiro,7072696d-6569-4726-9f2e-6b696361645f,rev?*
G04 #@! TF.SameCoordinates,Original*
G04 #@! TF.FileFunction,Soldermask,Bot*
G04 #@! TF.FilePolarity,Negative*
%FSLAX46Y46*%
G04 Gerber Fmt 4.6, Leading zero omitted, Abs format (unit mm)*
G04 Created by KiCad (PCBNEW (5.1.2)-2) date 2019-08-09 21:51:20*
%MOMM*%
%LPD*%
G04 APERTURE LIST*
%ADD10C,0.050000*%
%ADD11C,0.100000*%
G04 APERTURE END LIST*
D10*
X134620000Y-101600000D02*
X134620000Y-85090000D01*
X158750000Y-101600000D02*
X134620000Y-101600000D01*
X158750000Y-85090000D02*
X158750000Y-101600000D01*
X134620000Y-85090000D02*
X158750000Y-85090000D01*
D11*
G36*
X139409059Y-96107860D02*
G01*
X139469294Y-96132810D01*
X139545732Y-96164472D01*
X139668735Y-96246660D01*
X139773340Y-96351265D01*
X139855528Y-96474268D01*
X139912140Y-96610941D01*
X139941000Y-96756033D01*
X139941000Y-96903967D01*
X139912140Y-97049059D01*
X139855528Y-97185732D01*
X139773340Y-97308735D01*
X139668735Y-97413340D01*
X139545732Y-97495528D01*
X139545731Y-97495529D01*
X139545730Y-97495529D01*
X139409059Y-97552140D01*
X139263968Y-97581000D01*
X139116032Y-97581000D01*
X138970941Y-97552140D01*
X138834270Y-97495529D01*
X138834269Y-97495529D01*
X138834268Y-97495528D01*
X138711265Y-97413340D01*
X138606660Y-97308735D01*
X138524472Y-97185732D01*
X138467860Y-97049059D01*
X138439000Y-96903967D01*
X138439000Y-96756033D01*
X138467860Y-96610941D01*
X138524472Y-96474268D01*
X138606660Y-96351265D01*
X138711265Y-96246660D01*
X138834268Y-96164472D01*
X138910707Y-96132810D01*
X138970941Y-96107860D01*
X139116032Y-96079000D01*
X139263968Y-96079000D01*
X139409059Y-96107860D01*
X139409059Y-96107860D01*
G37*
G36*
X146883665Y-96082622D02*
G01*
X146957222Y-96089867D01*
X147098786Y-96132810D01*
X147229252Y-96202546D01*
X147259040Y-96226992D01*
X147343607Y-96296393D01*
X147413008Y-96380960D01*
X147437454Y-96410748D01*
X147507190Y-96541214D01*
X147550133Y-96682778D01*
X147564633Y-96830000D01*
X147550133Y-96977222D01*
X147507190Y-97118786D01*
X147437454Y-97249252D01*
X147417023Y-97274147D01*
X147343607Y-97363607D01*
X147283004Y-97413341D01*
X147229252Y-97457454D01*
X147098786Y-97527190D01*
X146957222Y-97570133D01*
X146883665Y-97577378D01*
X146846888Y-97581000D01*
X146773112Y-97581000D01*
X146736335Y-97577378D01*
X146662778Y-97570133D01*
X146521214Y-97527190D01*
X146390748Y-97457454D01*
X146336996Y-97413341D01*
X146276393Y-97363607D01*
X146202977Y-97274147D01*
X146182546Y-97249252D01*
X146112810Y-97118786D01*
X146069867Y-96977222D01*
X146055367Y-96830000D01*
X146069867Y-96682778D01*
X146112810Y-96541214D01*
X146182546Y-96410748D01*
X146206992Y-96380960D01*
X146276393Y-96296393D01*
X146360960Y-96226992D01*
X146390748Y-96202546D01*
X146521214Y-96132810D01*
X146662778Y-96089867D01*
X146736335Y-96082622D01*
X146773112Y-96079000D01*
X146846888Y-96079000D01*
X146883665Y-96082622D01*
X146883665Y-96082622D01*
G37*
G36*
X150108228Y-95701703D02*
G01*
X150263100Y-95765853D01*
X150402481Y-95858985D01*
X150521015Y-95977519D01*
X150614147Y-96116900D01*
X150678297Y-96271772D01*
X150711000Y-96436184D01*
X150711000Y-96603816D01*
X150678297Y-96768228D01*
X150614147Y-96923100D01*
X150521015Y-97062481D01*
X150402481Y-97181015D01*
X150263100Y-97274147D01*
X150108228Y-97338297D01*
X149943816Y-97371000D01*
X149776184Y-97371000D01*
X149611772Y-97338297D01*
X149456900Y-97274147D01*
X149317519Y-97181015D01*
X149198985Y-97062481D01*
X149105853Y-96923100D01*
X149041703Y-96768228D01*
X149009000Y-96603816D01*
X149009000Y-96436184D01*
X149041703Y-96271772D01*
X149105853Y-96116900D01*
X149198985Y-95977519D01*
X149317519Y-95858985D01*
X149456900Y-95765853D01*
X149611772Y-95701703D01*
X149776184Y-95669000D01*
X149943816Y-95669000D01*
X150108228Y-95701703D01*
X150108228Y-95701703D01*
G37*
G36*
X152608228Y-95701703D02*
G01*
X152763100Y-95765853D01*
X152902481Y-95858985D01*
X153021015Y-95977519D01*
X153114147Y-96116900D01*
X153178297Y-96271772D01*
X153211000Y-96436184D01*
X153211000Y-96603816D01*
X153178297Y-96768228D01*
X153114147Y-96923100D01*
X153021015Y-97062481D01*
X152902481Y-97181015D01*
X152763100Y-97274147D01*
X152608228Y-97338297D01*
X152443816Y-97371000D01*
X152276184Y-97371000D01*
X152111772Y-97338297D01*
X151956900Y-97274147D01*
X151817519Y-97181015D01*
X151698985Y-97062481D01*
X151605853Y-96923100D01*
X151541703Y-96768228D01*
X151509000Y-96603816D01*
X151509000Y-96436184D01*
X151541703Y-96271772D01*
X151605853Y-96116900D01*
X151698985Y-95977519D01*
X151817519Y-95858985D01*
X151956900Y-95765853D01*
X152111772Y-95701703D01*
X152276184Y-95669000D01*
X152443816Y-95669000D01*
X152608228Y-95701703D01*
X152608228Y-95701703D01*
G37*
G36*
X146883665Y-92932622D02*
G01*
X146957222Y-92939867D01*
X147098786Y-92982810D01*
X147229252Y-93052546D01*
X147259040Y-93076992D01*
X147343607Y-93146393D01*
X147413008Y-93230960D01*
X147437454Y-93260748D01*
X147507190Y-93391214D01*
X147550133Y-93532778D01*
X147564633Y-93680000D01*
X147550133Y-93827222D01*
X147507190Y-93968786D01*
X147437454Y-94099252D01*
X147413008Y-94129040D01*
X147343607Y-94213607D01*
X147283004Y-94263341D01*
X147229252Y-94307454D01*
X147098786Y-94377190D01*
X146957222Y-94420133D01*
X146883665Y-94427378D01*
X146846888Y-94431000D01*
X146773112Y-94431000D01*
X146736335Y-94427378D01*
X146662778Y-94420133D01*
X146521214Y-94377190D01*
X146390748Y-94307454D01*
X146336996Y-94263341D01*
X146276393Y-94213607D01*
X146206992Y-94129040D01*
X146182546Y-94099252D01*
X146112810Y-93968786D01*
X146069867Y-93827222D01*
X146055367Y-93680000D01*
X146069867Y-93532778D01*
X146112810Y-93391214D01*
X146182546Y-93260748D01*
X146206992Y-93230960D01*
X146276393Y-93146393D01*
X146360960Y-93076992D01*
X146390748Y-93052546D01*
X146521214Y-92982810D01*
X146662778Y-92939867D01*
X146736335Y-92932622D01*
X146773112Y-92929000D01*
X146846888Y-92929000D01*
X146883665Y-92932622D01*
X146883665Y-92932622D01*
G37*
G36*
X139409059Y-92957860D02*
G01*
X139544079Y-93013787D01*
X139545732Y-93014472D01*
X139668735Y-93096660D01*
X139773340Y-93201265D01*
X139855528Y-93324268D01*
X139912140Y-93460941D01*
X139941000Y-93606033D01*
X139941000Y-93753967D01*
X139912140Y-93899059D01*
X139855528Y-94035732D01*
X139773340Y-94158735D01*
X139668735Y-94263340D01*
X139545732Y-94345528D01*
X139545731Y-94345529D01*
X139545730Y-94345529D01*
X139409059Y-94402140D01*
X139263968Y-94431000D01*
X139116032Y-94431000D01*
X138970941Y-94402140D01*
X138834270Y-94345529D01*
X138834269Y-94345529D01*
X138834268Y-94345528D01*
X138711265Y-94263340D01*
X138606660Y-94158735D01*
X138524472Y-94035732D01*
X138467860Y-93899059D01*
X138439000Y-93753967D01*
X138439000Y-93606033D01*
X138467860Y-93460941D01*
X138524472Y-93324268D01*
X138606660Y-93201265D01*
X138711265Y-93096660D01*
X138834268Y-93014472D01*
X138835922Y-93013787D01*
X138970941Y-92957860D01*
X139116032Y-92929000D01*
X139263968Y-92929000D01*
X139409059Y-92957860D01*
X139409059Y-92957860D01*
G37*
G36*
X152922915Y-91417334D02*
G01*
X153031491Y-91450271D01*
X153031494Y-91450272D01*
X153067600Y-91469571D01*
X153131556Y-91503756D01*
X153219264Y-91575736D01*
X153291244Y-91663443D01*
X153325429Y-91727399D01*
X153344728Y-91763505D01*
X153344729Y-91763508D01*
X153377666Y-91872084D01*
X153386000Y-91956702D01*
X153386000Y-92463297D01*
X153377666Y-92547916D01*
X153345252Y-92654767D01*
X153344728Y-92656495D01*
X153334761Y-92675141D01*
X153291244Y-92756557D01*
X153219264Y-92844264D01*
X153131557Y-92916244D01*
X153067601Y-92950429D01*
X153031495Y-92969728D01*
X153031492Y-92969729D01*
X152922916Y-93002666D01*
X152810000Y-93013787D01*
X152697085Y-93002666D01*
X152588509Y-92969729D01*
X152588506Y-92969728D01*
X152552400Y-92950429D01*
X152488444Y-92916244D01*
X152400737Y-92844264D01*
X152328757Y-92756557D01*
X152285239Y-92675141D01*
X152271625Y-92654766D01*
X152254298Y-92637439D01*
X152233924Y-92623826D01*
X152211285Y-92614448D01*
X152187252Y-92609668D01*
X152162748Y-92609668D01*
X152138715Y-92614448D01*
X152116076Y-92623826D01*
X152095701Y-92637440D01*
X152078374Y-92654767D01*
X152064761Y-92675141D01*
X152021244Y-92756557D01*
X151949264Y-92844264D01*
X151861557Y-92916244D01*
X151797601Y-92950429D01*
X151761495Y-92969728D01*
X151761492Y-92969729D01*
X151652916Y-93002666D01*
X151540000Y-93013787D01*
X151427085Y-93002666D01*
X151318509Y-92969729D01*
X151318506Y-92969728D01*
X151282400Y-92950429D01*
X151218444Y-92916244D01*
X151130737Y-92844264D01*
X151067622Y-92767359D01*
X151050297Y-92750034D01*
X151029923Y-92736420D01*
X151007284Y-92727043D01*
X150983250Y-92722263D01*
X150958746Y-92722263D01*
X150934713Y-92727044D01*
X150912074Y-92736421D01*
X150891700Y-92750035D01*
X150874373Y-92767362D01*
X150860759Y-92787736D01*
X150851382Y-92810375D01*
X150846000Y-92846660D01*
X150846000Y-93011000D01*
X149694000Y-93011000D01*
X149694000Y-91409000D01*
X150846000Y-91409000D01*
X150846000Y-91573341D01*
X150848402Y-91597727D01*
X150855515Y-91621176D01*
X150867066Y-91642787D01*
X150882611Y-91661729D01*
X150901553Y-91677274D01*
X150923164Y-91688825D01*
X150946613Y-91695938D01*
X150970999Y-91698340D01*
X150995385Y-91695938D01*
X151018834Y-91688825D01*
X151040445Y-91677274D01*
X151059387Y-91661729D01*
X151067608Y-91652657D01*
X151130736Y-91575736D01*
X151218443Y-91503756D01*
X151282399Y-91469571D01*
X151318505Y-91450272D01*
X151318508Y-91450271D01*
X151427084Y-91417334D01*
X151540000Y-91406213D01*
X151652915Y-91417334D01*
X151761491Y-91450271D01*
X151761494Y-91450272D01*
X151797600Y-91469571D01*
X151861556Y-91503756D01*
X151949264Y-91575736D01*
X152021244Y-91663443D01*
X152064761Y-91744859D01*
X152078375Y-91765234D01*
X152095702Y-91782561D01*
X152116076Y-91796174D01*
X152138715Y-91805552D01*
X152162748Y-91810332D01*
X152187252Y-91810332D01*
X152211285Y-91805552D01*
X152233924Y-91796174D01*
X152254299Y-91782560D01*
X152271626Y-91765233D01*
X152285239Y-91744860D01*
X152328756Y-91663444D01*
X152400736Y-91575736D01*
X152488443Y-91503756D01*
X152552399Y-91469571D01*
X152588505Y-91450272D01*
X152588508Y-91450271D01*
X152697084Y-91417334D01*
X152810000Y-91406213D01*
X152922915Y-91417334D01*
X152922915Y-91417334D01*
G37*
G36*
X139409059Y-89807860D02*
G01*
X139469294Y-89832810D01*
X139545732Y-89864472D01*
X139668735Y-89946660D01*
X139773340Y-90051265D01*
X139855528Y-90174268D01*
X139912140Y-90310941D01*
X139941000Y-90456033D01*
X139941000Y-90603967D01*
X139912140Y-90749059D01*
X139855528Y-90885732D01*
X139773340Y-91008735D01*
X139668735Y-91113340D01*
X139545732Y-91195528D01*
X139545731Y-91195529D01*
X139545730Y-91195529D01*
X139409059Y-91252140D01*
X139263968Y-91281000D01*
X139116032Y-91281000D01*
X138970941Y-91252140D01*
X138834270Y-91195529D01*
X138834269Y-91195529D01*
X138834268Y-91195528D01*
X138711265Y-91113340D01*
X138606660Y-91008735D01*
X138524472Y-90885732D01*
X138467860Y-90749059D01*
X138439000Y-90603967D01*
X138439000Y-90456033D01*
X138467860Y-90310941D01*
X138524472Y-90174268D01*
X138606660Y-90051265D01*
X138711265Y-89946660D01*
X138834268Y-89864472D01*
X138910707Y-89832810D01*
X138970941Y-89807860D01*
X139116032Y-89779000D01*
X139263968Y-89779000D01*
X139409059Y-89807860D01*
X139409059Y-89807860D01*
G37*
G36*
X146883665Y-89782622D02*
G01*
X146957222Y-89789867D01*
X147098786Y-89832810D01*
X147229252Y-89902546D01*
X147259040Y-89926992D01*
X147343607Y-89996393D01*
X147413008Y-90080960D01*
X147437454Y-90110748D01*
X147507190Y-90241214D01*
X147550133Y-90382778D01*
X147564633Y-90530000D01*
X147550133Y-90677222D01*
X147507190Y-90818786D01*
X147437454Y-90949252D01*
X147413008Y-90979040D01*
X147343607Y-91063607D01*
X147283004Y-91113341D01*
X147229252Y-91157454D01*
X147098786Y-91227190D01*
X146957222Y-91270133D01*
X146883665Y-91277378D01*
X146846888Y-91281000D01*
X146773112Y-91281000D01*
X146736335Y-91277378D01*
X146662778Y-91270133D01*
X146521214Y-91227190D01*
X146390748Y-91157454D01*
X146336996Y-91113341D01*
X146276393Y-91063607D01*
X146206992Y-90979040D01*
X146182546Y-90949252D01*
X146112810Y-90818786D01*
X146069867Y-90677222D01*
X146055367Y-90530000D01*
X146069867Y-90382778D01*
X146112810Y-90241214D01*
X146182546Y-90110748D01*
X146206992Y-90080960D01*
X146276393Y-89996393D01*
X146360960Y-89926992D01*
X146390748Y-89902546D01*
X146521214Y-89832810D01*
X146662778Y-89789867D01*
X146736335Y-89782622D01*
X146773112Y-89779000D01*
X146846888Y-89779000D01*
X146883665Y-89782622D01*
X146883665Y-89782622D01*
G37*
M02*
