G04 #@! TF.GenerationSoftware,KiCad,Pcbnew,(5.1.2)-2*
G04 #@! TF.CreationDate,2019-08-09T21:51:20-03:00*
G04 #@! TF.ProjectId,primeiro,7072696d-6569-4726-9f2e-6b696361645f,rev?*
G04 #@! TF.SameCoordinates,Original*
G04 #@! TF.FileFunction,Copper,L1,Top*
G04 #@! TF.FilePolarity,Positive*
%FSLAX46Y46*%
G04 Gerber Fmt 4.6, Leading zero omitted, Abs format (unit mm)*
G04 Created by KiCad (PCBNEW (5.1.2)-2) date 2019-08-09 21:51:20*
%MOMM*%
%LPD*%
G04 APERTURE LIST*
%ADD10C,0.050000*%
%ADD11O,1.400000X1.400000*%
%ADD12C,1.400000*%
%ADD13R,1.050000X1.500000*%
%ADD14O,1.050000X1.500000*%
%ADD15C,1.600000*%
%ADD16C,1.000000*%
G04 APERTURE END LIST*
D10*
X134620000Y-101600000D02*
X134620000Y-85090000D01*
X158750000Y-101600000D02*
X134620000Y-101600000D01*
X158750000Y-85090000D02*
X158750000Y-101600000D01*
X134620000Y-85090000D02*
X158750000Y-85090000D01*
D11*
X146810000Y-96830000D03*
D12*
X139190000Y-96830000D03*
D11*
X146810000Y-93680000D03*
D12*
X139190000Y-93680000D03*
D11*
X146810000Y-90530000D03*
D12*
X139190000Y-90530000D03*
D13*
X150270000Y-92210000D03*
D14*
X152810000Y-92210000D03*
X151540000Y-92210000D03*
D15*
X152360000Y-96520000D03*
X149860000Y-96520000D03*
D16*
X149060001Y-95720001D02*
X149860000Y-96520000D01*
X149044999Y-95704999D02*
X149060001Y-95720001D01*
X149044999Y-92764999D02*
X149044999Y-95704999D01*
X146810000Y-90530000D02*
X149044999Y-92764999D01*
X152810000Y-93960000D02*
X152810000Y-92210000D01*
X153860001Y-95010001D02*
X152810000Y-93960000D01*
X153860001Y-97240001D02*
X153860001Y-95010001D01*
X152870001Y-98230001D02*
X153860001Y-97240001D01*
X140590001Y-98230001D02*
X152870001Y-98230001D01*
X139190000Y-96830000D02*
X140590001Y-98230001D01*
X139190000Y-93680000D02*
X139190000Y-90530000D01*
X139889999Y-89830001D02*
X139190000Y-90530000D01*
X140590001Y-89129999D02*
X139889999Y-89830001D01*
X150209999Y-89129999D02*
X140590001Y-89129999D01*
X151540000Y-90460000D02*
X150209999Y-89129999D01*
X151540000Y-92210000D02*
X151540000Y-90460000D01*
X146810000Y-93680000D02*
X146810000Y-96830000D01*
M02*
